<mxfile host="Electron" agent="Mozilla/5.0 (Macintosh; Intel Mac OS X 10_15_7) AppleWebKit/537.36 (KHTML, like Gecko) draw.io/28.1.2 Chrome/138.0.7204.243 Electron/37.4.0 Safari/537.36" version="28.1.2">
  <diagram name="Page-1" id="ats_abv7gow42Jio9Yl1">
    <mxGraphModel dx="1272" dy="1052" grid="1" gridSize="10" guides="1" tooltips="1" connect="1" arrows="1" fold="1" page="1" pageScale="1" pageWidth="850" pageHeight="1100" math="0" shadow="0">
      <root>
        <mxCell id="0" />
        <mxCell id="1" parent="0" />
        <mxCell id="fRRCHO6zsXlQDFJkpmqz-2" value="Сотрудник кредитования&lt;div&gt;(бэк-офис)&lt;/div&gt;" style="sketch=0;pointerEvents=1;shadow=0;dashed=0;html=1;strokeColor=none;labelPosition=center;verticalLabelPosition=bottom;verticalAlign=top;outlineConnect=0;align=center;shape=mxgraph.office.users.user;fillColor=#CCCBCB;" parent="1" vertex="1">
          <mxGeometry x="349" y="850" width="46" height="50" as="geometry" />
        </mxCell>
        <mxCell id="fRRCHO6zsXlQDFJkpmqz-3" value="Сотрудник колл-центра" style="sketch=0;pointerEvents=1;shadow=0;dashed=0;html=1;strokeColor=none;labelPosition=center;verticalLabelPosition=bottom;verticalAlign=top;outlineConnect=0;align=center;shape=mxgraph.office.users.user;fillColor=#7FBA42;" parent="1" vertex="1">
          <mxGeometry x="252" y="215" width="46" height="50" as="geometry" />
        </mxCell>
        <mxCell id="fRRCHO6zsXlQDFJkpmqz-5" value="Сотрудник бэк-офиса&lt;div&gt;&lt;br&gt;&lt;/div&gt;" style="sketch=0;pointerEvents=1;shadow=0;dashed=0;html=1;strokeColor=none;labelPosition=center;verticalLabelPosition=bottom;verticalAlign=top;outlineConnect=0;align=center;shape=mxgraph.office.users.user;fillColor=#2072B8;" parent="1" vertex="1">
          <mxGeometry x="349" y="630" width="46" height="50" as="geometry" />
        </mxCell>
        <mxCell id="fRRCHO6zsXlQDFJkpmqz-6" value="Сотрудник офиса" style="sketch=0;pointerEvents=1;shadow=0;dashed=0;html=1;strokeColor=none;labelPosition=center;verticalLabelPosition=bottom;verticalAlign=top;outlineConnect=0;align=center;shape=mxgraph.office.users.user;fillColor=#DA4026;" parent="1" vertex="1">
          <mxGeometry x="349" y="370" width="46" height="50" as="geometry" />
        </mxCell>
        <mxCell id="fRRCHO6zsXlQDFJkpmqz-7" value="&lt;div style=&quot;&quot;&gt;&lt;span&gt;&lt;font style=&quot;font-size: 16px;&quot;&gt;&lt;span style=&quot;box-sizing: inherit; color: rgba(0, 0, 0, 0.85); font-family: &amp;quot;YS Text&amp;quot;, sans-serif; white-space-collapse: preserve-breaks;&quot;&gt;&lt;font style=&quot;&quot;&gt;Система колл-центра&amp;nbsp;&lt;/font&gt;&lt;/span&gt;&lt;/font&gt;&lt;/span&gt;&lt;/div&gt;" style="rounded=1;whiteSpace=wrap;html=1;fillColor=#ffe6cc;strokeColor=#d79b00;align=center;" parent="1" vertex="1">
          <mxGeometry x="470" y="200" width="130" height="80" as="geometry" />
        </mxCell>
        <mxCell id="fRRCHO6zsXlQDFJkpmqz-8" value="&lt;span style=&quot;box-sizing: inherit; color: rgba(0, 0, 0, 0.85); font-family: &amp;quot;YS Text&amp;quot;, sans-serif; font-style: normal; font-variant-ligatures: normal; font-variant-caps: normal; letter-spacing: normal; orphans: 2; text-align: left; text-indent: 0px; text-transform: none; widows: 2; word-spacing: 0px; -webkit-text-stroke-width: 0px; white-space: pre-line; text-decoration-thickness: initial; text-decoration-style: initial; text-decoration-color: initial;&quot;&gt;&lt;font style=&quot;font-size: 16px;&quot;&gt;Автоматизированная банковская система (АБС)&lt;/font&gt;&lt;/span&gt;" style="rounded=1;whiteSpace=wrap;html=1;fillColor=#bac8d3;strokeColor=#23445d;" parent="1" vertex="1">
          <mxGeometry x="650" y="210" width="180" height="850" as="geometry" />
        </mxCell>
        <mxCell id="ClXJwPtxuCXsDcVXUxRC-4" style="edgeStyle=orthogonalEdgeStyle;rounded=0;orthogonalLoop=1;jettySize=auto;html=1;" parent="1" source="fRRCHO6zsXlQDFJkpmqz-9" target="ClXJwPtxuCXsDcVXUxRC-1" edge="1">
          <mxGeometry relative="1" as="geometry" />
        </mxCell>
        <mxCell id="fRRCHO6zsXlQDFJkpmqz-9" value="&lt;span style=&quot;box-sizing: inherit; color: rgba(0, 0, 0, 0.85); font-family: &amp;quot;YS Text&amp;quot;, sans-serif; font-style: normal; font-variant-ligatures: normal; font-variant-caps: normal; letter-spacing: normal; orphans: 2; text-align: left; text-indent: 0px; text-transform: none; widows: 2; word-spacing: 0px; -webkit-text-stroke-width: 0px; white-space: pre-line; text-decoration-thickness: initial; text-decoration-style: initial; text-decoration-color: initial;&quot;&gt;&lt;font style=&quot;font-size: 16px;&quot;&gt;СМС-шлюз&lt;/font&gt;&lt;/span&gt;" style="rounded=1;whiteSpace=wrap;html=1;fillColor=#d5e8d4;strokeColor=#82b366;" parent="1" vertex="1">
          <mxGeometry x="142" y="960" width="110" height="80" as="geometry" />
        </mxCell>
        <mxCell id="fRRCHO6zsXlQDFJkpmqz-11" value="&lt;div style=&quot;text-align: left;&quot;&gt;&lt;font style=&quot;font-size: 16px;&quot;&gt;Email&amp;nbsp;&lt;/font&gt;&lt;/div&gt;" style="rounded=1;whiteSpace=wrap;html=1;fillColor=#fff2cc;strokeColor=#d6b656;" parent="1" vertex="1">
          <mxGeometry x="332" y="550" width="80" height="30" as="geometry" />
        </mxCell>
        <mxCell id="fRRCHO6zsXlQDFJkpmqz-12" value="&lt;div style=&quot;text-align: left;&quot;&gt;&lt;span style=&quot;box-sizing: inherit; color: rgba(0, 0, 0, 0.85); font-family: &amp;quot;YS Text&amp;quot;, sans-serif; white-space-collapse: preserve-breaks;&quot;&gt;&lt;font style=&quot;font-size: 16px;&quot;&gt;Сайт&lt;/font&gt;&lt;/span&gt;&lt;/div&gt;" style="rounded=1;whiteSpace=wrap;html=1;fillColor=#dae8fc;strokeColor=#6c8ebf;" parent="1" vertex="1">
          <mxGeometry x="245" y="50" width="110" height="30" as="geometry" />
        </mxCell>
        <mxCell id="fRRCHO6zsXlQDFJkpmqz-13" value="&lt;div style=&quot;text-align: left;&quot;&gt;&lt;span style=&quot;box-sizing: inherit; color: rgba(0, 0, 0, 0.85); font-family: &amp;quot;YS Text&amp;quot;, sans-serif; white-space-collapse: preserve-breaks;&quot;&gt;&lt;font style=&quot;font-size: 16px;&quot;&gt;Интернет-банк&lt;/font&gt;&lt;/span&gt;&lt;/div&gt;" style="rounded=1;whiteSpace=wrap;html=1;fillColor=#e1d5e7;strokeColor=#9673a6;" parent="1" vertex="1">
          <mxGeometry x="320" y="125" width="120" height="30" as="geometry" />
        </mxCell>
        <mxCell id="fRRCHO6zsXlQDFJkpmqz-16" value="" style="endArrow=classic;html=1;rounded=0;entryX=0;entryY=0.5;entryDx=0;entryDy=0;exitX=1.043;exitY=0.52;exitDx=0;exitDy=0;exitPerimeter=0;" parent="1" source="fRRCHO6zsXlQDFJkpmqz-3" target="fRRCHO6zsXlQDFJkpmqz-7" edge="1">
          <mxGeometry width="50" height="50" relative="1" as="geometry">
            <mxPoint x="320" y="590" as="sourcePoint" />
            <mxPoint x="270" y="470" as="targetPoint" />
          </mxGeometry>
        </mxCell>
        <mxCell id="fRRCHO6zsXlQDFJkpmqz-17" value="Заведение обращения&lt;div&gt;&amp;nbsp;в системе&lt;/div&gt;" style="edgeLabel;html=1;align=center;verticalAlign=middle;resizable=0;points=[];" parent="fRRCHO6zsXlQDFJkpmqz-16" vertex="1" connectable="0">
          <mxGeometry x="-0.2526" y="4" relative="1" as="geometry">
            <mxPoint x="21" y="3" as="offset" />
          </mxGeometry>
        </mxCell>
        <mxCell id="fRRCHO6zsXlQDFJkpmqz-18" value="" style="endArrow=classic;html=1;rounded=0;exitX=1;exitY=0.5;exitDx=0;exitDy=0;entryX=0;entryY=0.035;entryDx=0;entryDy=0;entryPerimeter=0;" parent="1" source="fRRCHO6zsXlQDFJkpmqz-7" target="fRRCHO6zsXlQDFJkpmqz-8" edge="1">
          <mxGeometry width="50" height="50" relative="1" as="geometry">
            <mxPoint x="450" y="820" as="sourcePoint" />
            <mxPoint x="830" y="280" as="targetPoint" />
          </mxGeometry>
        </mxCell>
        <mxCell id="fRRCHO6zsXlQDFJkpmqz-21" value="" style="endArrow=classic;html=1;rounded=0;entryX=0.005;entryY=0.531;entryDx=0;entryDy=0;entryPerimeter=0;" parent="1" target="fRRCHO6zsXlQDFJkpmqz-8" edge="1">
          <mxGeometry width="50" height="50" relative="1" as="geometry">
            <mxPoint x="520" y="661" as="sourcePoint" />
            <mxPoint x="830" y="655" as="targetPoint" />
          </mxGeometry>
        </mxCell>
        <mxCell id="PRZFH6q77nMOEK6J_11t-11" value="обрабатка заявок&lt;div&gt;&amp;nbsp;из кол-центра&lt;/div&gt;" style="edgeLabel;html=1;align=center;verticalAlign=middle;resizable=0;points=[];" parent="fRRCHO6zsXlQDFJkpmqz-21" vertex="1" connectable="0">
          <mxGeometry x="-0.2033" y="1" relative="1" as="geometry">
            <mxPoint x="-118" as="offset" />
          </mxGeometry>
        </mxCell>
        <mxCell id="fRRCHO6zsXlQDFJkpmqz-23" value="" style="endArrow=classic;html=1;rounded=0;exitX=0.001;exitY=0.93;exitDx=0;exitDy=0;exitPerimeter=0;entryX=1;entryY=0.5;entryDx=0;entryDy=0;" parent="1" source="fRRCHO6zsXlQDFJkpmqz-8" target="fRRCHO6zsXlQDFJkpmqz-9" edge="1">
          <mxGeometry width="50" height="50" relative="1" as="geometry">
            <mxPoint x="450" y="820" as="sourcePoint" />
            <mxPoint x="500" y="770" as="targetPoint" />
            <Array as="points" />
          </mxGeometry>
        </mxCell>
        <mxCell id="fRRCHO6zsXlQDFJkpmqz-24" value="оповещение клиенту о том,&amp;nbsp;&lt;div&gt;что он может получить депозит&amp;nbsp;&lt;/div&gt;&lt;div&gt;под указанную ставку&lt;/div&gt;" style="edgeLabel;html=1;align=center;verticalAlign=middle;resizable=0;points=[];" parent="fRRCHO6zsXlQDFJkpmqz-23" vertex="1" connectable="0">
          <mxGeometry x="-0.1005" y="1" relative="1" as="geometry">
            <mxPoint x="6" y="-5" as="offset" />
          </mxGeometry>
        </mxCell>
        <mxCell id="fRRCHO6zsXlQDFJkpmqz-25" value="&lt;div style=&quot;text-align: left;&quot;&gt;&lt;font style=&quot;font-size: 16px;&quot;&gt;Email&amp;nbsp;&lt;/font&gt;&lt;/div&gt;" style="rounded=1;whiteSpace=wrap;html=1;fillColor=#fff2cc;strokeColor=#d6b656;" parent="1" vertex="1">
          <mxGeometry x="178" y="380" width="80" height="30" as="geometry" />
        </mxCell>
        <mxCell id="PRZFH6q77nMOEK6J_11t-1" value="" style="endArrow=classic;html=1;rounded=0;entryX=0;entryY=0.5;entryDx=0;entryDy=0;" parent="1" source="ClXJwPtxuCXsDcVXUxRC-1" target="fRRCHO6zsXlQDFJkpmqz-13" edge="1">
          <mxGeometry width="50" height="50" relative="1" as="geometry">
            <mxPoint x="164" y="117.59900990099004" as="sourcePoint" />
            <mxPoint x="382" y="-15" as="targetPoint" />
            <Array as="points">
              <mxPoint x="180" y="193" />
              <mxPoint x="180" y="140" />
            </Array>
          </mxGeometry>
        </mxCell>
        <mxCell id="PRZFH6q77nMOEK6J_11t-5" value="&lt;font&gt;проведение платежей;&lt;/font&gt;&lt;div&gt;&lt;font&gt;&amp;nbsp;открытие текущих&amp;nbsp;&lt;/font&gt;&lt;/div&gt;&lt;div&gt;&lt;font&gt;счетов (дебетовых карт)&lt;/font&gt;&lt;/div&gt;" style="edgeLabel;html=1;align=center;verticalAlign=middle;resizable=0;points=[];" parent="PRZFH6q77nMOEK6J_11t-1" vertex="1" connectable="0">
          <mxGeometry x="0.0499" y="1" relative="1" as="geometry">
            <mxPoint x="10" y="-14" as="offset" />
          </mxGeometry>
        </mxCell>
        <mxCell id="PRZFH6q77nMOEK6J_11t-2" value="" style="endArrow=classic;html=1;rounded=0;entryX=0;entryY=0.5;entryDx=0;entryDy=0;edgeStyle=orthogonalEdgeStyle;" parent="1" source="ClXJwPtxuCXsDcVXUxRC-1" target="fRRCHO6zsXlQDFJkpmqz-12" edge="1">
          <mxGeometry width="50" height="50" relative="1" as="geometry">
            <mxPoint x="164" y="117.59999999999991" as="sourcePoint" />
            <mxPoint x="292" y="-20" as="targetPoint" />
            <Array as="points">
              <mxPoint x="76" y="65" />
            </Array>
          </mxGeometry>
        </mxCell>
        <mxCell id="PRZFH6q77nMOEK6J_11t-4" value="&lt;font&gt;просмотр маркетинговой&lt;/font&gt;&lt;div style=&quot;&quot;&gt;&lt;font&gt;&amp;nbsp;информации&lt;/font&gt;&lt;/div&gt;" style="edgeLabel;html=1;align=center;verticalAlign=middle;resizable=0;points=[];" parent="PRZFH6q77nMOEK6J_11t-2" vertex="1" connectable="0">
          <mxGeometry x="-0.0516" relative="1" as="geometry">
            <mxPoint as="offset" />
          </mxGeometry>
        </mxCell>
        <mxCell id="PRZFH6q77nMOEK6J_11t-8" value="" style="endArrow=classic;html=1;rounded=0;entryX=0;entryY=0.139;entryDx=0;entryDy=0;entryPerimeter=0;" parent="1" source="fRRCHO6zsXlQDFJkpmqz-6" target="fRRCHO6zsXlQDFJkpmqz-8" edge="1">
          <mxGeometry width="50" height="50" relative="1" as="geometry">
            <mxPoint x="298" y="380.0005084745762" as="sourcePoint" />
            <mxPoint x="760" y="328" as="targetPoint" />
            <Array as="points">
              <mxPoint x="393" y="327.67" />
            </Array>
          </mxGeometry>
        </mxCell>
        <mxCell id="PRZFH6q77nMOEK6J_11t-10" value="учёт операций по счетам&amp;nbsp;&lt;div&gt;и бухгалтерия;&lt;/div&gt;&lt;div&gt;загрузка документов;&lt;/div&gt;&lt;div&gt;создание депозитов&lt;/div&gt;" style="edgeLabel;html=1;align=center;verticalAlign=middle;resizable=0;points=[];" parent="PRZFH6q77nMOEK6J_11t-8" vertex="1" connectable="0">
          <mxGeometry x="-0.0772" y="1" relative="1" as="geometry">
            <mxPoint x="11" y="7" as="offset" />
          </mxGeometry>
        </mxCell>
        <mxCell id="PRZFH6q77nMOEK6J_11t-12" value="" style="endArrow=classic;html=1;rounded=0;exitX=0.5;exitY=1;exitDx=0;exitDy=0;" parent="1" source="fRRCHO6zsXlQDFJkpmqz-11" target="fRRCHO6zsXlQDFJkpmqz-5" edge="1">
          <mxGeometry width="50" height="50" relative="1" as="geometry">
            <mxPoint x="512" y="740" as="sourcePoint" />
            <mxPoint x="371" y="820" as="targetPoint" />
          </mxGeometry>
        </mxCell>
        <mxCell id="PRZFH6q77nMOEK6J_11t-13" value="" style="endArrow=classic;html=1;rounded=0;entryX=0.5;entryY=0;entryDx=0;entryDy=0;" parent="1" target="fRRCHO6zsXlQDFJkpmqz-11" edge="1">
          <mxGeometry width="50" height="50" relative="1" as="geometry">
            <mxPoint x="372" y="430" as="sourcePoint" />
            <mxPoint x="562" y="690" as="targetPoint" />
          </mxGeometry>
        </mxCell>
        <mxCell id="PRZFH6q77nMOEK6J_11t-14" value="&lt;font&gt;запрос ставки&lt;/font&gt;&lt;div&gt;&lt;font&gt;депозита&lt;/font&gt;&lt;/div&gt;&lt;div&gt;&lt;font&gt;для клиента&lt;/font&gt;&lt;/div&gt;" style="edgeLabel;html=1;align=center;verticalAlign=middle;resizable=0;points=[];" parent="PRZFH6q77nMOEK6J_11t-13" vertex="1" connectable="0">
          <mxGeometry x="-0.1875" y="-1" relative="1" as="geometry">
            <mxPoint y="9" as="offset" />
          </mxGeometry>
        </mxCell>
        <mxCell id="PRZFH6q77nMOEK6J_11t-18" value="" style="endArrow=classic;html=1;rounded=0;" parent="1" source="PRZFH6q77nMOEK6J_11t-23" target="fRRCHO6zsXlQDFJkpmqz-2" edge="1">
          <mxGeometry width="50" height="50" relative="1" as="geometry">
            <mxPoint x="512" y="1080" as="sourcePoint" />
            <mxPoint x="562" y="1030" as="targetPoint" />
          </mxGeometry>
        </mxCell>
        <mxCell id="PRZFH6q77nMOEK6J_11t-24" value="" style="endArrow=classic;html=1;rounded=0;" parent="1" source="fRRCHO6zsXlQDFJkpmqz-5" target="PRZFH6q77nMOEK6J_11t-23" edge="1">
          <mxGeometry width="50" height="50" relative="1" as="geometry">
            <mxPoint x="371" y="680" as="sourcePoint" />
            <mxPoint x="371" y="850" as="targetPoint" />
          </mxGeometry>
        </mxCell>
        <mxCell id="PRZFH6q77nMOEK6J_11t-25" value="согласовать специальные&amp;nbsp;&lt;div&gt;ставки&lt;/div&gt;" style="edgeLabel;html=1;align=center;verticalAlign=middle;resizable=0;points=[];" parent="PRZFH6q77nMOEK6J_11t-24" vertex="1" connectable="0">
          <mxGeometry x="-0.1571" relative="1" as="geometry">
            <mxPoint y="8" as="offset" />
          </mxGeometry>
        </mxCell>
        <mxCell id="PRZFH6q77nMOEK6J_11t-23" value="&lt;div style=&quot;text-align: left;&quot;&gt;&lt;font style=&quot;font-size: 16px;&quot;&gt;Email&amp;nbsp;&lt;/font&gt;&lt;/div&gt;" style="rounded=1;whiteSpace=wrap;html=1;fillColor=#fff2cc;strokeColor=#d6b656;" parent="1" vertex="1">
          <mxGeometry x="332" y="780" width="80" height="30" as="geometry" />
        </mxCell>
        <mxCell id="PRZFH6q77nMOEK6J_11t-26" value="" style="endArrow=classic;html=1;rounded=0;entryX=0.011;entryY=0.782;entryDx=0;entryDy=0;entryPerimeter=0;" parent="1" source="fRRCHO6zsXlQDFJkpmqz-2" target="fRRCHO6zsXlQDFJkpmqz-8" edge="1">
          <mxGeometry width="50" height="50" relative="1" as="geometry">
            <mxPoint x="910" y="840" as="sourcePoint" />
            <mxPoint x="960" y="790" as="targetPoint" />
          </mxGeometry>
        </mxCell>
        <mxCell id="PRZFH6q77nMOEK6J_11t-27" value="анализирует текущий уровень&amp;nbsp;&lt;div&gt;кредитного риска для банка&lt;/div&gt;&lt;div&gt;для клиента&lt;/div&gt;" style="edgeLabel;html=1;align=center;verticalAlign=middle;resizable=0;points=[];" parent="PRZFH6q77nMOEK6J_11t-26" vertex="1" connectable="0">
          <mxGeometry x="-0.2325" y="2" relative="1" as="geometry">
            <mxPoint x="26" y="4" as="offset" />
          </mxGeometry>
        </mxCell>
        <mxCell id="PRZFH6q77nMOEK6J_11t-28" value="&lt;div style=&quot;text-align: left;&quot;&gt;&lt;font style=&quot;font-size: 16px;&quot;&gt;Email&amp;nbsp;&lt;/font&gt;&lt;/div&gt;" style="rounded=1;whiteSpace=wrap;html=1;fillColor=#fff2cc;strokeColor=#d6b656;" parent="1" vertex="1">
          <mxGeometry x="172" y="750" width="80" height="30" as="geometry" />
        </mxCell>
        <mxCell id="PRZFH6q77nMOEK6J_11t-29" value="&lt;div style=&quot;text-align: left;&quot;&gt;&lt;font style=&quot;font-size: 16px;&quot;&gt;Excel&lt;/font&gt;&lt;/div&gt;" style="rounded=1;whiteSpace=wrap;html=1;fillColor=#fff2cc;strokeColor=#d6b656;" parent="1" vertex="1">
          <mxGeometry x="177" y="460" width="70" height="30" as="geometry" />
        </mxCell>
        <mxCell id="PRZFH6q77nMOEK6J_11t-30" value="" style="endArrow=classic;html=1;rounded=0;entryX=0.5;entryY=1;entryDx=0;entryDy=0;" parent="1" source="fRRCHO6zsXlQDFJkpmqz-2" target="PRZFH6q77nMOEK6J_11t-28" edge="1">
          <mxGeometry width="50" height="50" relative="1" as="geometry">
            <mxPoint x="792" y="840" as="sourcePoint" />
            <mxPoint x="842" y="790" as="targetPoint" />
            <Array as="points">
              <mxPoint x="212" y="875" />
            </Array>
          </mxGeometry>
        </mxCell>
        <mxCell id="PRZFH6q77nMOEK6J_11t-31" value="ответ на&lt;div&gt;согласование&amp;nbsp;&lt;/div&gt;&lt;div&gt;специальной ставки&lt;/div&gt;" style="edgeLabel;html=1;align=center;verticalAlign=middle;resizable=0;points=[];" parent="PRZFH6q77nMOEK6J_11t-30" vertex="1" connectable="0">
          <mxGeometry x="0.6617" relative="1" as="geometry">
            <mxPoint as="offset" />
          </mxGeometry>
        </mxCell>
        <mxCell id="PRZFH6q77nMOEK6J_11t-32" value="" style="endArrow=classic;html=1;rounded=0;exitX=0.5;exitY=0;exitDx=0;exitDy=0;edgeStyle=orthogonalEdgeStyle;" parent="1" source="PRZFH6q77nMOEK6J_11t-28" edge="1">
          <mxGeometry width="50" height="50" relative="1" as="geometry">
            <mxPoint x="792" y="840" as="sourcePoint" />
            <mxPoint x="342" y="670" as="targetPoint" />
            <Array as="points">
              <mxPoint x="212" y="670" />
            </Array>
          </mxGeometry>
        </mxCell>
        <mxCell id="PRZFH6q77nMOEK6J_11t-33" value="" style="endArrow=classic;html=1;rounded=0;entryX=0.5;entryY=1;entryDx=0;entryDy=0;" parent="1" source="fRRCHO6zsXlQDFJkpmqz-5" target="PRZFH6q77nMOEK6J_11t-29" edge="1">
          <mxGeometry width="50" height="50" relative="1" as="geometry">
            <mxPoint x="348" y="640" as="sourcePoint" />
            <mxPoint x="92" y="585" as="targetPoint" />
            <Array as="points">
              <mxPoint x="212" y="655" />
              <mxPoint x="212" y="570" />
            </Array>
          </mxGeometry>
        </mxCell>
        <mxCell id="PRZFH6q77nMOEK6J_11t-37" value="вычисление&lt;div&gt;&amp;nbsp;основной ставки&lt;/div&gt;" style="edgeLabel;html=1;align=center;verticalAlign=middle;resizable=0;points=[];" parent="PRZFH6q77nMOEK6J_11t-33" vertex="1" connectable="0">
          <mxGeometry x="0.6549" y="2" relative="1" as="geometry">
            <mxPoint x="7" y="14" as="offset" />
          </mxGeometry>
        </mxCell>
        <mxCell id="PRZFH6q77nMOEK6J_11t-38" value="" style="endArrow=classic;html=1;rounded=0;entryX=0.425;entryY=1.003;entryDx=0;entryDy=0;entryPerimeter=0;exitX=0.5;exitY=0;exitDx=0;exitDy=0;" parent="1" source="PRZFH6q77nMOEK6J_11t-29" target="fRRCHO6zsXlQDFJkpmqz-25" edge="1">
          <mxGeometry width="50" height="50" relative="1" as="geometry">
            <mxPoint x="652" y="830" as="sourcePoint" />
            <mxPoint x="842" y="790" as="targetPoint" />
          </mxGeometry>
        </mxCell>
        <mxCell id="PRZFH6q77nMOEK6J_11t-39" value="" style="endArrow=classic;html=1;rounded=0;exitX=1;exitY=0.5;exitDx=0;exitDy=0;" parent="1" source="fRRCHO6zsXlQDFJkpmqz-25" target="fRRCHO6zsXlQDFJkpmqz-6" edge="1">
          <mxGeometry width="50" height="50" relative="1" as="geometry">
            <mxPoint x="57.5" y="520" as="sourcePoint" />
            <mxPoint x="56.5" y="431" as="targetPoint" />
          </mxGeometry>
        </mxCell>
        <mxCell id="PRZFH6q77nMOEK6J_11t-40" value="" style="endArrow=classic;html=1;rounded=0;entryX=0.5;entryY=0;entryDx=0;entryDy=0;" parent="1" target="PRZFH6q77nMOEK6J_11t-41" edge="1">
          <mxGeometry width="50" height="50" relative="1" as="geometry">
            <mxPoint x="394" y="400" as="sourcePoint" />
            <mxPoint x="572" y="400" as="targetPoint" />
            <Array as="points">
              <mxPoint x="532" y="400" />
            </Array>
          </mxGeometry>
        </mxCell>
        <mxCell id="PRZFH6q77nMOEK6J_11t-42" value="итоговая ставка по&lt;div&gt;депозитам&lt;/div&gt;&lt;div&gt;(обновляется раз в день)&lt;/div&gt;" style="edgeLabel;html=1;align=center;verticalAlign=middle;resizable=0;points=[];" parent="PRZFH6q77nMOEK6J_11t-40" vertex="1" connectable="0">
          <mxGeometry x="0.6393" y="3" relative="1" as="geometry">
            <mxPoint as="offset" />
          </mxGeometry>
        </mxCell>
        <mxCell id="PRZFH6q77nMOEK6J_11t-41" value="&lt;div style=&quot;text-align: left;&quot;&gt;&lt;font style=&quot;font-size: 16px;&quot;&gt;Excel&lt;/font&gt;&lt;/div&gt;" style="rounded=1;whiteSpace=wrap;html=1;fillColor=#fff2cc;strokeColor=#d6b656;" parent="1" vertex="1">
          <mxGeometry x="497" y="470" width="70" height="30" as="geometry" />
        </mxCell>
        <mxCell id="PRZFH6q77nMOEK6J_11t-43" value="&lt;div style=&quot;text-align: left;&quot;&gt;&lt;font style=&quot;font-size: 16px;&quot;&gt;Email&amp;nbsp;&lt;/font&gt;&lt;/div&gt;" style="rounded=1;whiteSpace=wrap;html=1;fillColor=#fff2cc;strokeColor=#d6b656;" parent="1" vertex="1">
          <mxGeometry x="492" y="530" width="80" height="30" as="geometry" />
        </mxCell>
        <mxCell id="PRZFH6q77nMOEK6J_11t-44" value="" style="endArrow=classic;html=1;rounded=0;exitX=0.5;exitY=1;exitDx=0;exitDy=0;entryX=0.5;entryY=0;entryDx=0;entryDy=0;" parent="1" source="PRZFH6q77nMOEK6J_11t-41" target="PRZFH6q77nMOEK6J_11t-43" edge="1">
          <mxGeometry width="50" height="50" relative="1" as="geometry">
            <mxPoint x="792" y="840" as="sourcePoint" />
            <mxPoint x="842" y="790" as="targetPoint" />
          </mxGeometry>
        </mxCell>
        <mxCell id="PRZFH6q77nMOEK6J_11t-45" value="" style="endArrow=classic;html=1;rounded=0;exitX=0.5;exitY=1;exitDx=0;exitDy=0;" parent="1" source="PRZFH6q77nMOEK6J_11t-43" edge="1">
          <mxGeometry width="50" height="50" relative="1" as="geometry">
            <mxPoint x="792" y="840" as="sourcePoint" />
            <mxPoint x="402" y="640" as="targetPoint" />
            <Array as="points">
              <mxPoint x="532" y="640" />
            </Array>
          </mxGeometry>
        </mxCell>
        <mxCell id="ClXJwPtxuCXsDcVXUxRC-1" value="Клиент банка&lt;div&gt;&lt;br&gt;&lt;/div&gt;" style="sketch=0;pointerEvents=1;shadow=0;dashed=0;html=1;strokeColor=none;fillColor=#505050;labelPosition=center;verticalLabelPosition=bottom;verticalAlign=top;outlineConnect=0;align=center;shape=mxgraph.office.users.user;" parent="1" vertex="1">
          <mxGeometry x="50" y="190" width="50" height="50" as="geometry" />
        </mxCell>
        <mxCell id="ClXJwPtxuCXsDcVXUxRC-2" value="" style="endArrow=classic;html=1;rounded=0;" parent="1" source="ClXJwPtxuCXsDcVXUxRC-1" edge="1">
          <mxGeometry width="50" height="50" relative="1" as="geometry">
            <mxPoint x="140" y="240.17000000000002" as="sourcePoint" />
            <mxPoint x="260" y="239" as="targetPoint" />
            <Array as="points">
              <mxPoint x="76" y="240" />
            </Array>
          </mxGeometry>
        </mxCell>
        <mxCell id="ClXJwPtxuCXsDcVXUxRC-3" value="Обращение&lt;div&gt;в&lt;span style=&quot;background-color: light-dark(#ffffff, var(--ge-dark-color, #121212)); color: light-dark(rgb(0, 0, 0), rgb(255, 255, 255));&quot;&gt;&amp;nbsp;колл-центр&lt;/span&gt;&lt;/div&gt;" style="edgeLabel;html=1;align=center;verticalAlign=middle;resizable=0;points=[];" parent="ClXJwPtxuCXsDcVXUxRC-2" vertex="1" connectable="0">
          <mxGeometry x="-0.2526" y="4" relative="1" as="geometry">
            <mxPoint x="48" y="5" as="offset" />
          </mxGeometry>
        </mxCell>
        <mxCell id="ClXJwPtxuCXsDcVXUxRC-6" value="1" style="ellipse;whiteSpace=wrap;html=1;aspect=fixed;fillColor=#FFFF00;strokeColor=#36393d;" parent="1" vertex="1">
          <mxGeometry x="177" y="10" width="40" height="40" as="geometry" />
        </mxCell>
        <mxCell id="ClXJwPtxuCXsDcVXUxRC-7" value="2" style="ellipse;whiteSpace=wrap;html=1;aspect=fixed;fillColor=#FFFF00;strokeColor=#36393d;" parent="1" vertex="1">
          <mxGeometry x="150" y="270" width="40" height="40" as="geometry" />
        </mxCell>
        <mxCell id="ClXJwPtxuCXsDcVXUxRC-9" value="3" style="ellipse;whiteSpace=wrap;html=1;aspect=fixed;fillColor=#FFFF00;strokeColor=#36393d;" parent="1" vertex="1">
          <mxGeometry x="580" y="370" width="40" height="40" as="geometry" />
        </mxCell>
        <mxCell id="ClXJwPtxuCXsDcVXUxRC-10" value="4" style="ellipse;whiteSpace=wrap;html=1;aspect=fixed;fillColor=#FFFF00;strokeColor=#36393d;" parent="1" vertex="1">
          <mxGeometry x="315" y="1010" width="40" height="40" as="geometry" />
        </mxCell>
        <mxCell id="ClXJwPtxuCXsDcVXUxRC-11" value="5" style="ellipse;whiteSpace=wrap;html=1;aspect=fixed;fillColor=#FFFF00;strokeColor=#36393d;" parent="1" vertex="1">
          <mxGeometry x="512" y="85" width="40" height="40" as="geometry" />
        </mxCell>
      </root>
    </mxGraphModel>
  </diagram>
</mxfile>
